<?xml version="1.0" standalone="no"?>
<!DOCTYPE svg PUBLIC "-//W3C//DTD SVG 20010904//EN"
 "http://www.w3.org/TR/2001/REC-SVG-20010904/DTD/svg10.dtd">
<svg version="1.0" xmlns="http://www.w3.org/2000/svg"
 width="35.000000pt" height="34.000000pt" viewBox="0 0 35.000000 34.000000"
 preserveAspectRatio="xMidYMid meet">

<g transform="translate(0.000000,34.000000) scale(0.100000,-0.100000)"
fill="#000000" stroke="none">
<path d="M50 238 c0 -132 43 -191 139 -192 27 -1 52 2 56 5 3 4 -6 19 -20 35
-26 28 -28 35 -40 109 -11 65 -46 104 -107 119 l-28 6 0 -82z"/>
<path d="M240 220 c-11 -11 -20 -29 -20 -40 0 -30 27 -78 50 -90 16 -8 22 -6
34 12 8 13 18 39 21 60 6 29 3 40 -14 57 -26 26 -45 27 -71 1z"/>
</g>
</svg>
